<?xml version="1.0" encoding="UTF-8"?>
<svg id="Layer_1" data-name="Layer 1" xmlns="http://www.w3.org/2000/svg" xmlns:xlink="http://www.w3.org/1999/xlink" viewBox="0 0 1200 268.08">
  <defs>
    <linearGradient id="linear-gradient" x1="10.5" y1="176.9" x2="233.88" y2="176.9" gradientTransform="translate(0 270) scale(1 -1)" gradientUnits="userSpaceOnUse">
      <stop offset="0" stop-color="#424143"/>
      <stop offset=".45" stop-color="#6e6f72"/>
      <stop offset="1" stop-color="#010101"/>
    </linearGradient>
    <linearGradient id="linear-gradient-2" x1="55.21" y1="115.79" x2="279" y2="115.79" gradientTransform="translate(0 270) scale(1 -1)" gradientUnits="userSpaceOnUse">
      <stop offset="0" stop-color="#0d67b0"/>
      <stop offset=".45" stop-color="#1ed7e0"/>
      <stop offset="1" stop-color="#19abdd"/>
    </linearGradient>
  </defs>
  <g>
    <g>
      <path d="M109.1,74.24c3.93,0,7.09.48,9.87,1.2,5.55-22.34,14.85-36.99,25.4-36.99s19.81,14.59,25.37,36.86c2.92-.76,6.35-1.26,10.75-1.26,17.64,0,20.72,8.05,36.3,8.05,4.31,0,8-.7,11.1-1.73.34,1.02.66,2.06.98,3.09-12.94-42.53-45.77-72.75-84.24-72.75s-70.01,29.04-83.45,70.25c2.93.69,6.71,1.31,10.95,1.31,9.76,0,21.06-8.05,36.98-8.05h-.02Z" fill="#b1b2b6"/>
      <path d="M182.04,163.61c-4.42,0-7.8.44-10.64,1.11-5.24,26.37-15.38,44.26-27.02,44.26s-21.89-18.06-27.11-44.67c-2.05-.33-4.42-.53-7.3-.53-17.81,0-21.06,7.36-37.83,7.36-3.63,0-6.92-.4-9.68-.95-1.35-3.74-2.54-7.59-3.56-11.54,11.74,45.3,45.68,78.06,85.73,78.06,36.5,0,67.93-27.2,82.11-66.3-21.29,4.76-27.92-6.79-44.69-6.79h-.01Z" fill="#b1b2b6"/>
    </g>
    <path d="M216.79,82.12c-15.58,0-18.66-8.05-36.3-8.05s-19.68,8.05-35.95,8.05-19.51-7.88-35.43-7.88-27.22,8.05-36.98,8.05-17.11-3.25-17.11-3.25v-30.82L10.5,92.73l44.71,45.25c-2.06-10.61.14-29.85.14-29.85,27.05,9.24,33.22-4.8,51.7-4.8s18.83,7.7,37.15,7.7,17.11-7.53,34.92-7.53,21.06,7.36,37.83,7.36c7.91,0,14.15-1.93,16.92-2.96-1.08-9.61-3.11-18.84-5.99-27.53-3.1,1.02-6.8,1.73-11.1,1.73h0Z" fill="url(#linear-gradient)"/>
    <path d="M278.99,154.53l-45.11-46.61.19,31.38s-7.36,3.25-17.11,3.25-21.06-8.05-36.98-8.05-19.17,7.88-35.43,7.88-18.32-8.05-35.95-8.05-20.72,8.05-36.3,8.05c-7.53,0-13.21-2.16-17.08-4.39,1.14,11.35,3.62,22.17,7.25,32.2,2.76.54,6.04.95,9.68.95,16.77,0,20.03-7.36,37.83-7.36s16.6,7.53,34.92,7.53,18.66-7.7,37.15-7.7,24.65,14.03,51.7,4.8l-.06,32.1,45.32-45.96h-.01Z" fill="url(#linear-gradient-2)"/>
  </g>
  <path d="M438.27,137.5c0,18.03-6.37,33.45-19.1,46.27-12.73,12.82-28.21,19.23-46.41,19.23s-33.45-6.42-46.27-19.23c-12.82-12.82-19.23-28.25-19.23-46.27s6.42-33.73,19.23-46.56c12.82-12.82,28.25-19.23,46.27-19.23s33.68,6.42,46.41,19.23c12.72,12.82,19.1,28.35,19.1,46.56ZM403.99,137.5c0-8.74-3.07-16.12-9.2-22.17-6.13-6.04-13.48-9.06-22.03-9.06s-15.85,3.03-21.89,9.06c-6.04,6.04-9.06,13.43-9.06,22.17s3.02,15.85,9.06,21.89c6.04,6.04,13.33,9.06,21.89,9.06s15.89-3.02,22.03-9.06c6.13-6.04,9.2-13.33,9.2-21.89ZM488.45,39.37c0,5.02-1.77,9.29-5.3,12.82-3.54,3.53-7.81,5.3-12.82,5.3s-9.29-1.77-12.82-5.3c-3.54-3.53-5.3-7.8-5.3-12.82s1.77-9.29,5.3-12.82c3.53-3.53,7.8-5.3,12.82-5.3s9.29,1.77,12.82,5.3c3.53,3.54,5.3,7.8,5.3,12.82ZM488.17,201.61h-35.4V72.82h35.4v128.78ZM543.36,201.61h-35.4V15.12h35.4v186.49ZM691.38,240.44l-35.4,16.92.28-62.16c-9.47,5.02-19.7,7.52-30.66,7.52-18.03,0-33.45-6.42-46.27-19.23-12.82-12.82-19.23-28.34-19.23-46.56s6.42-33.45,19.23-46.27c12.82-12.82,28.25-19.23,46.27-19.23s33.22,6.18,46.13,18.54c12.92,12.36,19.47,27.28,19.65,44.75,0-7.43,0,3.25,0,32.05v73.68h0ZM656.81,136.93c0-8.55-3.03-15.85-9.06-21.88-6.04-6.04-13.43-9.06-22.17-9.06s-15.85,3.03-21.89,9.06c-6.04,6.04-9.06,13.34-9.06,21.88s3.02,16.12,9.06,22.17,13.33,9.06,21.89,9.06,16.12-3.02,22.17-9.06c6.04-6.03,9.06-13.43,9.06-22.17ZM873.37,39.37c0,5.02-1.77,9.29-5.3,12.82-3.54,3.53-7.81,5.3-12.82,5.3s-9.29-1.77-12.82-5.3c-3.54-3.53-5.3-7.8-5.3-12.82s1.77-9.29,5.3-12.82c3.53-3.53,7.8-5.3,12.82-5.3s9.29,1.77,12.82,5.3c3.53,3.54,5.3,7.8,5.3,12.82ZM873.09,201.61h-35.4V72.82h35.4v128.78ZM1022.63,136.93c0,18.21-6.42,33.73-19.23,46.56-12.82,12.82-28.25,19.23-46.27,19.23-10.78,0-21-2.5-30.66-7.52v62.16h-35.12v-122.65c.55-17.47,7.2-32.38,19.93-44.75,12.72-12.36,28.02-18.54,45.85-18.54s33.45,6.42,46.27,19.23c12.82,12.82,19.23,28.25,19.23,46.27h0ZM988.07,136.93c0-8.55-3.03-15.85-9.06-21.88-6.04-6.04-13.34-9.06-21.89-9.06s-16.12,3.03-22.17,9.06c-6.04,6.04-9.06,13.34-9.06,21.88s3.02,16.12,9.06,22.17c6.03,6.04,13.43,9.06,22.17,9.06s15.85-3.02,21.89-9.06c6.03-6.03,9.06-13.43,9.06-22.17ZM1055.59,120.68c0,2.44-.86,4.52-2.58,6.24-1.72,1.72-3.8,2.58-6.24,2.58s-4.52-.86-6.24-2.58c-1.72-1.72-2.58-3.79-2.58-6.24s.86-4.52,2.58-6.24,3.79-2.58,6.24-2.58,4.52.86,6.24,2.58c1.72,1.72,2.58,3.79,2.58,6.24ZM1055.46,199.65h-17.23v-62.68h17.23v62.68ZM1128.31,199.65h-16.83l-.14-31.06c0-4.25-1.49-7.86-4.48-10.86-2.98-2.98-6.61-4.48-10.86-4.48-3.89,0-7.28,1.29-10.18,3.87-2.9,2.58-4.52,5.81-4.88,9.7l-.14,32.83h-17.09v-31.48c.09-8.87,3.3-16.39,9.63-22.59,6.33-6.19,13.89-9.29,22.66-9.29s16.57,3.14,22.86,9.43c6.29,6.29,9.43,13.91,9.43,22.86v31.06h.01ZM1189.5,145.92c-2.72,3.26-6.65,7.28-11.81,12.07-3.08-3.07-6.65-4.61-10.72-4.61s-7.72,1.47-10.65,4.41c-2.94,2.94-4.41,6.53-4.41,10.78s1.47,7.72,4.41,10.65c2.94,2.94,6.49,4.41,10.65,4.41s8-1.45,10.99-4.34c7.68,7.6,11.49,11.58,11.39,11.94-6.24,6.15-13.7,9.23-22.39,9.23s-16.28-3.12-22.52-9.36c-6.24-6.24-9.36-13.75-9.36-22.52s3.12-16.41,9.36-22.66c6.24-6.24,13.75-9.36,22.52-9.36s16.28,3.12,22.52,9.36h.02ZM785.67,73.26v93.37c-3.71,1.56-22.69,4.33-33.94-6.69-6.04-6.03-9.06-13.43-9.06-22.17l-.28-64.67h-34.29v64.67c0,45,38.48,64.23,78.91,64.23h33.94V73.11l-35.29.15h.01Z" fill="#fff"/>
</svg>